<svg id="Calque_1" data-name="Calque 1" xmlns="http://www.w3.org/2000/svg" viewBox="-25 0 140 65">
<defs><style>.cls-1,.cls-3{fill:#1d1d1b;}.cls-2{fill:#FFFFFF;stroke:#1d1d1b;stroke-miterlimit:10;stroke-width:0.75px;}.cls-3{font-size:4.42px;font-family:PixelDigivolve, Pixel Digivolve;letter-spacing:0.06em;}</style></defs>
<path id="body" class="cls-2" d="M38.85,13.22C34.66,13.22,30.56,15,29.1,25a12.33,12.33,0,0,1-2.18,5.46l-8.29,9.75c-.91.91,3.46,7.19,6.46,9.38-.63,1.82-1.24,3.62-1.24,3.62.88.34,1.39,2.77,3.16,3s2.34-1.6,4.31-1.09a2.13,2.13,0,0,1,1.45,2.63s2.68,4.9,6.08,4.9,5.79-3.68,6-5.24,1-2.23,2-2.23,1.57,1.14,4.39,1.14c1.63,0,2.48-3.45,2.48-3.45l-1.06-3.59c4.09-2.71,6.3-7.52,6.25-9-1-1.11-8.13-9.79-9-10.79a4.85,4.85,0,0,1-1.27-3.09C48.52,24.89,48.47,13.22,38.85,13.22Z"/><polyline class="cls-1" points="45.18 57.3 44.44 57.39 41.46 34.17"/><polyline class="cls-1" points="35.72 36.95 33.14 57.73 32.4 57.64"/><polyline class="cls-1" points="24.2 53.3 23.49 53.06 32.85 29.26"/><polyline class="cls-1" points="54.09 52.7 53.38 52.92 47.54 33.88"/>
<path id="left-eye" class="cls-1" d="M33.66,19.85c-.65.49-.81.8-.79,1.2s-.19,1,.77,1.41a2,2,0,0,0,1.12.2,7.31,7.31,0,0,1,.87-.26,1.37,1.37,0,0,0,.78-1,3.86,3.86,0,0,0,0-.76,2.53,2.53,0,0,0-.33-.61c-.12-.18-.81-.35-.89-.37l-.68-.14-.25.06Z"/>
<path id="right-eye" class="cls-1" d="M42.34,19.55c-.54.27-.8.35-1,.77a2.17,2.17,0,0,0-.24.57,3.06,3.06,0,0,0,0,.81c.07.18-.09.45.52.8a2.2,2.2,0,0,0,1.06.32,1.3,1.3,0,0,0,.58.05,3,3,0,0,0,1.37-.8,1.31,1.31,0,0,0,.21-1,1.73,1.73,0,0,0-.33-.75l-.35-.44s-.4-.35-.52-.35Z"/>
<text id="tatoo" class="cls-3" transform="translate(19.29 40.66) rotate(53.82)">&lt;/&gt;</text>
<path id="smile" class="cls-1" d="M36.84,25.7c.09,0,3.13,1.2,4.08-1.69"/>
<path id="glasses" d="M46,22.68a.3.3,0,0,1-.29.26H41.24a.31.31,0,0,1-.29-.26l-.38-3a.23.23,0,0,1,.23-.26h5.32a.23.23,0,0,1,.23.26Zm-9,0a.3.3,0,0,1-.29.26H32.28a.31.31,0,0,1-.29-.26l-.38-3a.23.23,0,0,1,.23-.26h5.32a.22.22,0,0,1,.23.26ZM46.85,19a1,1,0,0,0-.73-.33H40.8a1,1,0,0,0-.73.33.77.77,0,0,0-.17.29H38.07a.92.92,0,0,0-.18-.32,1,1,0,0,0-.73-.33H31.84a1,1,0,0,0-1,1.09l.37,3a1.06,1.06,0,0,0,1,.91h4.44a1.06,1.06,0,0,0,1-.91L38.09,20h1.78l.34,2.74a1.06,1.06,0,0,0,1,.91h4.44a1.06,1.06,0,0,0,1-.91l.37-3a.94.94,0,0,0-.23-.76Z"/></svg>