<svg id="Calque_1" data-name="Calque 1" xmlns="http://www.w3.org/2000/svg" viewBox="0 0 125.41 33.14"><defs><style>.cls-1{fill:#FFFFFF;}</style></defs><path class="cls-1" d="M13.15,24.07V13a5.35,5.35,0,0,1,1.62-3.91,5.32,5.32,0,0,1,3.91-1.62v2.76a2.71,2.71,0,0,0-2,.82A2.66,2.66,0,0,0,15.91,13v2.77h2.77v2.77H15.91v5.53Z"/><path class="cls-1" d="M21.85,22.45a5.53,5.53,0,0,1,0-7.82,5.5,5.5,0,0,1,7.82,0,5.33,5.33,0,0,1,1.63,3.91v5.53H28.53V18.54a2.76,2.76,0,0,0-4.72-1.95,2.76,2.76,0,0,0,2,4.71v2.77A5.32,5.32,0,0,1,21.85,22.45Z"/><path class="cls-1" d="M32.84,24.07V18.54a5.52,5.52,0,0,1,9.44-3.91,5.29,5.29,0,0,1,1.63,3.91v5.53H41.15V18.54a2.67,2.67,0,0,0-.82-1.95,2.74,2.74,0,0,0-3.91,0,2.66,2.66,0,0,0-.81,1.95v5.53Z"/><path class="cls-1" d="M47.08,22.45a5.34,5.34,0,0,1-1.62-3.91V7.47h2.77V13H51v2.77H48.23v2.77A2.77,2.77,0,0,0,51,21.3v2.77A5.32,5.32,0,0,1,47.08,22.45Z"/><path class="cls-1" d="M55.31,13V10.23H52.54V7.47h5.53V13Z"/><path class="cls-1" d="M59.62,24.07V7.47h2.77V13h2.76a5.57,5.57,0,0,1,5.54,5.54v5.53H67.92V18.54a2.78,2.78,0,0,0-2.77-2.77H62.39v8.3Z"/><path class="cls-1" d="M73.86,22.45a5.53,5.53,0,0,1,0-7.82,5.53,5.53,0,0,1,9.44,3.91,5.53,5.53,0,0,1-9.44,3.91Zm5.86-2a2.76,2.76,0,1,0-3.91-3.9,2.76,2.76,0,0,0,3.91,3.9Z"/><path class="cls-1" d="M84.85,24.07V18.54a5.54,5.54,0,0,1,11.07,0H93.15a2.66,2.66,0,0,0-.81-1.95,2.74,2.74,0,0,0-3.91,0,2.66,2.66,0,0,0-.81,1.95v5.53Zm13.84,0V18.54a2.8,2.8,0,0,0-2.77-2.77V13a5.55,5.55,0,0,1,5.53,5.54v5.53Z"/><path class="cls-1" d="M108.51,21.3a2.76,2.76,0,0,1-1.93-4.71,2.77,2.77,0,0,1,4.72,1.95h2.77a5.54,5.54,0,1,0-9.45,3.91,5.34,5.34,0,0,0,3.92,1.62h4.17V21.3Z"/><path class="cls-1" d="M121.14,17.28c-2.23,0-2.55,1.36-2.55,2.33a17,17,0,0,0,.26,2.55,18.77,18.77,0,0,1,.25,2.58c0,3.18-2,4.32-4.57,4.32h-.66V27.33h.54c1.76,0,2.52-1,2.52-2.74a20,20,0,0,0-.22-2.27,13.77,13.77,0,0,1-.26-2.39c0-2,.89-3.09,2.27-3.43v-.07c-1.38-.37-2.27-1.38-2.27-3.4a14.22,14.22,0,0,1,.26-2.39,19.34,19.34,0,0,0,.22-2.23c0-1.7-.66-2.68-2.49-2.71h-.57V4h.63c2.68,0,4.6,1.23,4.6,4.12a19.51,19.51,0,0,1-.25,2.62,18.16,18.16,0,0,0-.26,2.64c0,1.1.32,2.33,2.55,2.33Z"/><path class="cls-1" d="M4.5,15.68c2.24,0,2.55-1.23,2.55-2.33a18.14,18.14,0,0,0-.25-2.64,19.51,19.51,0,0,1-.25-2.62C6.55,5.2,8.44,4,11.11,4h.67V5.7h-.57c-1.86,0-2.49,1-2.49,2.71a14.39,14.39,0,0,0,.22,2.23A14.25,14.25,0,0,1,9.16,13c0,2-.85,3-2.26,3.4v.07c1.41.34,2.29,1.41,2.26,3.43a13.87,13.87,0,0,1-.22,2.39,14.9,14.9,0,0,0-.22,2.27c0,1.76.73,2.74,2.49,2.74h.57v1.73h-.67c-2.61,0-4.56-1.14-4.56-4.32a18.77,18.77,0,0,1,.25-2.58,16.94,16.94,0,0,0,.25-2.55c0-1-.31-2.33-2.55-2.33Z"/></svg>