<svg id="Calque_1" data-name="Calque 1" xmlns="http://www.w3.org/2000/svg" viewBox="0 0 44.6 53.68">
<defs><style>.cls-1{fill:#1d1d1b;}.cls-2{fill:#FFFFFF;stroke:#1d1d1b;stroke-miterlimit:10;stroke-width:0.75px;}</style></defs>
<g id="icone_Fant_home" data-name="icone Fant&apos;home">
<path class="cls-1" d="M43.13,29.23v-.14L43,29c-.75-.83-5.09-6.09-7.42-8.92l-1.53-1.85a4.6,4.6,0,0,1-1.19-2.9c0-.1,0-.26,0-.47-.77-10.72-6-13-10.18-13-3.89,0-8.56,1.38-10.12,12.09a12,12,0,0,1-2.1,5.26L2.2,29a.91.91,0,0,0-.23.77c.15,1.85,3.84,6.94,6.51,9-.6,1.73-1.16,3.37-1.16,3.37l-.11.34.33.13c.23.09.51.52.78.94a3.66,3.66,0,0,0,2.48,2.05A3.35,3.35,0,0,0,13,44.93a2.43,2.43,0,0,1,2.08-.47,1.65,1.65,0,0,1,1.22,1.95l0,.23,0,.14.07.12c.11.21,2.83,5.11,6.4,5.11s6.16-4,6.34-5.59c.13-1.25.7-1.89,1.67-1.89a2.1,2.1,0,0,1,1,.34,6.65,6.65,0,0,0,3.42.8c1.86,0,2.75-3.35,2.84-3.73l0-.1-1-3.43C40.89,35.67,43.19,31,43.13,29.23Zm-6.59,8.54L31.38,22.92l5.8,18.94c-.24.89-1,3.06-2.09,3.06A5.92,5.92,0,0,1,32,44.2a2.85,2.85,0,0,0-1.32-.42,2.21,2.21,0,0,0-1.92,1l-3.48-21.6,3,23.17c-.19,1.51-2.46,4.88-5.58,4.88-2.85,0-5.25-3.87-5.68-4.6a2.59,2.59,0,0,0,0-.41L19.55,26l-3,18.6a2.28,2.28,0,0,0-1.32-.85,3.12,3.12,0,0,0-2.65.54,2.5,2.5,0,0,1-1.71.53c-.91-.1-1.45-1-1.94-1.7a4.44,4.44,0,0,0-.81-1L16.68,18.3,8.9,38.09c-3.14-2.43-6.56-8-6.15-8.63l8.3-9.76a12.63,12.63,0,0,0,2.26-5.64C14.77,4,18.87,2.63,22.68,2.63c5.67,0,8.85,4.13,9.43,12.28,0,.22,0,.39,0,.5a5.25,5.25,0,0,0,1.36,3.29c.2.24.76.93,1.53,1.85,2.24,2.73,6.36,7.72,7.33,8.83C42.3,30.82,40.32,35.14,36.54,37.77Z"/>
<path class="cls-1" d="M17.49,8.88c-.64.5-.81.81-.79,1.21s-.18,1,.77,1.4a2.07,2.07,0,0,0,1.12.21,7.71,7.71,0,0,1,.87-.27,1.38,1.38,0,0,0,.79-.95,5.51,5.51,0,0,0,0-.77,3,3,0,0,0-.33-.6c-.13-.19-.81-.35-.9-.37l-.68-.15-.25.07Z"/>
<path class="cls-1" d="M26.17,8.59c-.54.27-.8.34-1,.76a3.18,3.18,0,0,0-.24.57,3.14,3.14,0,0,0,0,.82c.08.17-.09.45.52.79a2.07,2.07,0,0,0,1.06.32,1.33,1.33,0,0,0,.59.05,3,3,0,0,0,1.36-.79,1.25,1.25,0,0,0,.21-1,1.73,1.73,0,0,0-.33-.74L28,8.88s-.4-.34-.52-.34Z"/>
<path class="cls-1" d="M4.55,28.63l.26.35.34-.26.26.35.35-.25.51.7-.35.25-.26-.35-.34.26-.26-.35-.35.25.26.35-.35.26.25.34-.34.26L4,30.09l.34-.25-.25-.35.35-.26-.26-.34Z"/>
<path class="cls-2" d="M8.05,31.22l.51.69-.7.51-.26-.34-.34.25L7,32l-.35.26-.25-.35-.35.25-.25-.35-.7.51-.51-.69.7-.51.25.35.35-.26.25.35.35-.26.26.35.35-.25.25.35Z"/>
<path class="cls-1" d="M8.59,34.89l-.25-.35L8,34.8l-.25-.35-.35.25L6.88,34l.35-.26.25.35.35-.26.25.35.35-.25-.25-.35.35-.26L8.27,33l.35-.26.51.7-.35.25L9,34l-.34.26.25.34Z"/>
<path class="cls-1" d="M20.68,14.74c.08,0,3.13,1.2,4.08-1.7"/>
<path d="M29.81,11.71a.3.3,0,0,1-.3.26H25.08a.3.3,0,0,1-.3-.26l-.37-3a.22.22,0,0,1,.23-.26H30a.22.22,0,0,1,.23.26Zm-9,0a.31.31,0,0,1-.3.26H16.12a.31.31,0,0,1-.3-.26l-.37-3a.22.22,0,0,1,.23-.26H21a.22.22,0,0,1,.22.26ZM30.68,8A.94.94,0,0,0,30,7.71H24.64A1,1,0,0,0,23.9,8a1.22,1.22,0,0,0-.17.29H21.91A1,1,0,0,0,21.73,8,1,1,0,0,0,21,7.68H15.68a1,1,0,0,0-.74.33,1,1,0,0,0-.23.76l.38,3a1,1,0,0,0,1,.91h4.43a1,1,0,0,0,1-.91l.34-2.72H23.7l.35,2.74a1,1,0,0,0,1,.91h4.43a1,1,0,0,0,1-.91l.38-3A1,1,0,0,0,30.68,8Z"/>
</g></svg>